<svg xmlns="http://www.w3.org/2000/svg" aria-labelledby="auto-router-title" preserveAspectRatio="xMinYMid meet" role="img" viewBox="70 0 536 360"><title id="auto-router-title">AxonHub Architecture Diagram</title><style>@keyframes pulse{0%{opacity:.8}50%{opacity:1}}@keyframes glow-pulse{0%{filter:drop-shadow(0 0 4px rgba(153,246,228,.6))}50%{filter:drop-shadow(0 0 8px rgba(153,246,228,.9))}}@keyframes connector-pulse{0%{stroke-opacity:.35}50%{stroke-opacity:.75}}.flow-line{stroke-dasharray:6,8;animation:flow 1.5s linear infinite}.pulse-center{animation:pulse 3s ease-in-out infinite}.pulse-center,.rotate-medium,.rotate-slow{transform-origin:360px 180px}.rotate-slow{animation:rotate-slow 15s linear infinite}.rotate-medium{animation:rotate-medium 10s linear infinite}.fade-in{animation:fade-in 2s ease-out}.glow{filter:drop-shadow(0 0 4px rgba(153,246,228,.6));animation:glow-pulse 2.5s ease-in-out infinite}</style><rect width="536" height="360" x="70" y="0" fill="#1e293b" rx="12"/><g class="pulse-center"><circle cx="360" cy="180" r="78" fill="none" stroke="#ffffff22" stroke-width="1.5" class="rotate-slow"/><circle cx="360" cy="180" r="52" fill="none" stroke="#ffffff33" stroke-width="1.5" class="rotate-medium"/><circle cx="360" cy="180" r="30" fill="rgba(34,211,238,0.06)" stroke="#99f6e4" stroke-width="1.5" class="glow"/></g><defs><path id="ar-curve" fill="none" d="M 360 180 m -60 0 a 60 60 0 1 1 120 0"/><marker id="arrow" markerHeight="8" markerWidth="8" orient="auto" refX="8" refY="4"><path fill="#e2e8f0" d="M0,0 L8,4 L0,8 Z"/></marker></defs><text fill="#e2e8f0" font-family="ui-sans-serif, system-ui, -apple-system" font-size="18"><textPath href="#ar-curve" startOffset="30%">AxonHub</textPath></text><g class="glow"><g transform="translate(360 180) translate(-10 -10)"><circle cx="10" cy="10" r="10" fill="#0ea5e9" opacity=".12"/><path fill="none" stroke="#99f6e4" stroke-linecap="round" stroke-width="1.6" d="M3 16 L10 4 L17 16 M6.5 10.5 H13.5"/></g></g><g class="fade-in"><rect width="120" height="44" x="70" y="98" fill="rgba(255,255,255,0.06)" stroke="rgba(255,255,255,0.18)" rx="10" ry="10"/><text x="130" y="125" fill="#e2e8f0" font-family="ui-sans-serif, system-ui" font-size="16" text-anchor="middle">Deepseek</text><rect width="120" height="44" x="70" y="168" fill="rgba(255,255,255,0.06)" stroke="rgba(255,255,255,0.18)" rx="10" ry="10"/><text x="130" y="195" fill="#e2e8f0" font-family="ui-sans-serif, system-ui" font-size="16" text-anchor="middle">OpenAI</text><rect width="120" height="44" x="70" y="238" fill="rgba(255,255,255,0.06)" stroke="rgba(255,255,255,0.18)" rx="10" ry="10"/><text x="130" y="265" fill="#e2e8f0" font-family="ui-sans-serif, system-ui" font-size="16" text-anchor="middle">Anthropic</text></g><path fill="none" stroke="#cbd5e1" stroke-dasharray="6 8" stroke-opacity=".7" stroke-width="1.5" d="M190 120 C 240 120, 280 144, 328 164" class="flow-line"/><path fill="none" stroke="#cbd5e1" stroke-dasharray="6 8" stroke-opacity=".7" stroke-width="1.5" d="M190 190 C 240 190, 280 184, 328 184" class="flow-line"/><path fill="none" stroke="#cbd5e1" stroke-dasharray="6 8" stroke-opacity=".7" stroke-width="1.5" d="M190 260 C 240 260, 280 216, 328 196" class="flow-line"/><g class="fade-in"><circle cx="588" cy="110" r="18" fill="rgba(255,255,255,0.06)" stroke="rgba(255,255,255,0.18)"/><path fill="none" stroke="#cbd5e1" stroke-linecap="round" stroke-width="1.2" d="M588 104 a5 5 0 1 0 0.0001 0 M578 120 c0-5 20-5 20 0"/><circle cx="588" cy="180" r="18" fill="rgba(255,255,255,0.06)" stroke="rgba(255,255,255,0.18)"/><path fill="none" stroke="#cbd5e1" stroke-linecap="round" stroke-width="1.2" d="M588 174 a5 5 0 1 0 0.0001 0 M578 190 c0-5 20-5 20 0"/><circle cx="588" cy="250" r="18" fill="rgba(255,255,255,0.06)" stroke="rgba(255,255,255,0.18)"/><path fill="none" stroke="#cbd5e1" stroke-linecap="round" stroke-width="1.2" d="M588 244 a5 5 0 1 0 0.0001 0 M578 260 c0-5 20-5 20 0"/></g><path fill="none" stroke="#cbd5e1" stroke-dasharray="6 8" stroke-opacity=".75" stroke-width="1.6" marker-end="url(#arrow)" d="M392 180 L 568 180" class="flow-line"/><path fill="none" stroke="#cbd5e1" stroke-dasharray="6 8" stroke-opacity=".35" stroke-width="1.3" marker-end="url(#arrow)" d="M392 176 C 440 140, 520 120, 568 110" class="flow-line"/><path fill="none" stroke="#cbd5e1" stroke-dasharray="6 8" stroke-opacity=".35" stroke-width="1.3" marker-end="url(#arrow)" d="M392 184 C 440 220, 520 240, 568 250" class="flow-line"/></svg>